<?xml version="1.0" encoding="UTF-8" standalone="no"?>
<!-- Generator: Adobe Illustrator 19.0.0, SVG Export Plug-In . SVG Version: 6.00 Build 0)  -->

<svg
   xmlns:dc="http://purl.org/dc/elements/1.1/"
   xmlns:cc="http://creativecommons.org/ns#"
   xmlns:rdf="http://www.w3.org/1999/02/22-rdf-syntax-ns#"
   xmlns:svg="http://www.w3.org/2000/svg"
   xmlns="http://www.w3.org/2000/svg"
   xmlns:sodipodi="http://sodipodi.sourceforge.net/DTD/sodipodi-0.dtd"
   xmlns:inkscape="http://www.inkscape.org/namespaces/inkscape"
   version="1.1"
   id="Capa_1"
   x="0px"
   y="0px"
   viewBox="0 0 56.372 56.372"
   style="enable-background:new 0 0 56.372 56.372;"
   xml:space="preserve"
   sodipodi:docname="eye-closed.svg"
   inkscape:version="0.92.4 (f8dce91, 2019-08-02)"><metadata
   id="metadata45"><rdf:RDF><cc:Work
       rdf:about=""><dc:format>image/svg+xml</dc:format><dc:type
         rdf:resource="http://purl.org/dc/dcmitype/StillImage" /></cc:Work></rdf:RDF></metadata><defs
   id="defs43" /><sodipodi:namedview
   pagecolor="#ffffff"
   bordercolor="#666666"
   borderopacity="1"
   objecttolerance="10"
   gridtolerance="10"
   guidetolerance="10"
   inkscape:pageopacity="0"
   inkscape:pageshadow="2"
   inkscape:window-width="675"
   inkscape:window-height="496"
   id="namedview41"
   showgrid="false"
   inkscape:zoom="4.1864754"
   inkscape:cx="28.186001"
   inkscape:cy="28.186001"
   inkscape:window-x="2094"
   inkscape:window-y="136"
   inkscape:window-maximized="0"
   inkscape:current-layer="Capa_1" />
<path
   style="fill:#87cefa;fill-opacity:1"
   d="M56.372,28.564l-7.234,7.234c-11.517,11.517-30.19,11.517-41.707,0L0,28.367l7.234-7.234  c11.517-11.517,30.19-11.517,41.707,0L56.372,28.564z"
   id="path2" />
<circle
   style="fill:#ffffff;fill-opacity:1"
   cx="28.158"
   cy="28.436"
   r="12"
   id="circle4" />
<line
   style="fill:none;stroke:#EBBA16;stroke-width:2;stroke-linecap:round;stroke-miterlimit:10;"
   x1="6.052"
   y1="51.436"
   x2="52.552"
   y2="4.936"
   id="line6" />
<path
   style="fill:#1f83c9;fill-opacity:0.29411766"
   d="M21.372,28.436c-0.552,0-1-0.448-1-1c0-3.86,3.14-7,7-7c0.552,0,1,0.448,1,1s-0.448,1-1,1  c-2.757,0-5,2.243-5,5C22.372,27.988,21.924,28.436,21.372,28.436z"
   id="path8" />
<g
   id="g10">
</g>
<g
   id="g12">
</g>
<g
   id="g14">
</g>
<g
   id="g16">
</g>
<g
   id="g18">
</g>
<g
   id="g20">
</g>
<g
   id="g22">
</g>
<g
   id="g24">
</g>
<g
   id="g26">
</g>
<g
   id="g28">
</g>
<g
   id="g30">
</g>
<g
   id="g32">
</g>
<g
   id="g34">
</g>
<g
   id="g36">
</g>
<g
   id="g38">
</g>
</svg>