<?xml version="1.0" encoding="UTF-8" standalone="no"?>
<svg
   xmlns:dc="http://purl.org/dc/elements/1.1/"
   xmlns:cc="http://creativecommons.org/ns#"
   xmlns:rdf="http://www.w3.org/1999/02/22-rdf-syntax-ns#"
   xmlns:svg="http://www.w3.org/2000/svg"
   xmlns="http://www.w3.org/2000/svg"
   xmlns:sodipodi="http://sodipodi.sourceforge.net/DTD/sodipodi-0.dtd"
   xmlns:inkscape="http://www.inkscape.org/namespaces/inkscape"
   viewBox="0 0 48 48"
   width="144"
   height="144"
   version="1.1"
   id="svg6"
   sodipodi:docname="icons8-javascript.svg"
   inkscape:version="0.92.4 (f8dce91, 2019-08-02)">
  <metadata
     id="metadata12">
    <rdf:RDF>
      <cc:Work
         rdf:about="">
        <dc:format>image/svg+xml</dc:format>
        <dc:type
           rdf:resource="http://purl.org/dc/dcmitype/StillImage" />
      </cc:Work>
    </rdf:RDF>
  </metadata>
  <defs
     id="defs10" />
  <sodipodi:namedview
     pagecolor="#ffffff"
     bordercolor="#666666"
     borderopacity="1"
     objecttolerance="10"
     gridtolerance="10"
     guidetolerance="10"
     inkscape:pageopacity="0"
     inkscape:pageshadow="2"
     inkscape:window-width="1920"
     inkscape:window-height="1048"
     id="namedview8"
     showgrid="false"
     inkscape:snap-bbox="true"
     inkscape:bbox-nodes="true"
     inkscape:snap-center="true"
     inkscape:snap-object-midpoints="true"
     inkscape:object-paths="true"
     inkscape:snap-intersection-paths="true"
     inkscape:snap-bbox-midpoints="true"
     inkscape:snap-bbox-edge-midpoints="true"
     inkscape:bbox-paths="true"
     inkscape:zoom="2.3177389"
     inkscape:cx="-28.76085"
     inkscape:cy="106.70643"
     inkscape:window-x="1920"
     inkscape:window-y="0"
     inkscape:window-maximized="1"
     inkscape:current-layer="svg6" />
  <path
     d="M -0.04635701,48.046357 V -0.04635701 H 48.046357 V 48.046357 Z"
     id="path2"
     inkscape:connector-curvature="0"
     style="fill:#ffd600;stroke-width:1.33590877" />
  <path
     d="m 33.020648,37.100163 c 0.828109,1.345079 1.72802,2.633914 3.634347,2.633914 1.601171,0 2.441247,-0.795798 2.441247,-1.896753 0,-1.317555 -0.868797,-1.785461 -2.630324,-2.55254 l -0.965729,-0.411661 c -2.78709,-1.182329 -4.640763,-2.663831 -4.640763,-5.793175 0,-2.884023 2.207892,-5.078752 5.657949,-5.078752 2.456805,0 4.221922,0.850847 5.4952,3.079083 l -3.008478,1.92308 c -0.661769,-1.182329 -1.37739,-1.647841 -2.486722,-1.647841 -1.132068,0 -1.848886,0.714423 -1.848886,1.647841 0,1.15361 0.718015,1.620318 2.37543,2.334742 l 0.965729,0.411662 c 3.284914,1.39893 5.137389,2.827777 5.137389,6.039693 0,3.460827 -2.733239,5.35758 -6.40229,5.35758 -3.588873,0 -5.626836,-1.801017 -6.761298,-4.030451 z M 19.1558,37.198293 c 0.605525,1.084202 1.525779,1.918294 2.849318,1.918294 C 23.271216,39.116587 24,38.616371 24,36.67175 V 24 h 3.988567 v 13.284453 c 0,4.029255 -2.337135,5.862583 -5.750094,5.862583 -3.08387,0 -5.309713,-2.08942 -6.216804,-4.030451 z"
     id="path4"
     inkscape:connector-curvature="0"
     style="fill:#000001;stroke-width:1.19668984" />
</svg>
