<?xml version="1.0" encoding="UTF-8" standalone="no"?>
<svg
   xmlns:dc="http://purl.org/dc/elements/1.1/"
   xmlns:cc="http://creativecommons.org/ns#"
   xmlns:rdf="http://www.w3.org/1999/02/22-rdf-syntax-ns#"
   xmlns:svg="http://www.w3.org/2000/svg"
   xmlns="http://www.w3.org/2000/svg"
   xmlns:sodipodi="http://sodipodi.sourceforge.net/DTD/sodipodi-0.dtd"
   xmlns:inkscape="http://www.inkscape.org/namespaces/inkscape"
   height="512pt"
   viewBox="0 -25 512 512"
   width="512pt"
   version="1.1"
   id="svg40"
   sodipodi:docname="domain4.svg"
   inkscape:version="0.92.4 (f8dce91, 2019-08-02)">
  <metadata
     id="metadata46">
    <rdf:RDF>
      <cc:Work
         rdf:about="">
        <dc:format>image/svg+xml</dc:format>
        <dc:type
           rdf:resource="http://purl.org/dc/dcmitype/StillImage" />
      </cc:Work>
    </rdf:RDF>
  </metadata>
  <defs
     id="defs44" />
  <sodipodi:namedview
     pagecolor="#ffffff"
     bordercolor="#666666"
     borderopacity="1"
     objecttolerance="10"
     gridtolerance="10"
     guidetolerance="10"
     inkscape:pageopacity="0"
     inkscape:pageshadow="2"
     inkscape:window-width="952"
     inkscape:window-height="628"
     id="namedview42"
     showgrid="false"
     inkscape:zoom="0.17285156"
     inkscape:cx="190.66249"
     inkscape:cy="468.9685"
     inkscape:window-x="2812"
     inkscape:window-y="150"
     inkscape:window-maximized="0"
     inkscape:current-layer="svg40" />
  <path
     d="m487.25 231.25c0 127.71875-103.535156 231.253906-231.25 231.253906s-231.25-103.535156-231.25-231.253906c0-127.714844 103.535156-231.25 231.25-231.25s231.25 103.535156 231.25 231.25zm0 0"
     fill="#80e0dc"
     id="path2"
     style="fill:#87cefa;fill-opacity:1" />
  <path
     d="m487.25 231.25c0 127.71875-103.53125 231.253906-231.25 231.253906-23.644531 0-46.46875-3.550781-67.957031-10.148437 9.921875 1.296875 20.035156 1.96875 30.316406 1.96875 127.71875 0 231.253906-103.535157 231.253906-231.25 0-104.070313-68.742187-192.074219-163.292969-221.105469 113.390626 14.851562 200.929688 111.847656 200.929688 229.28125zm0 0"
     fill="#00a8b0"
     id="path4"
     style="fill:#ffffff;fill-opacity:0.29473683" />
  <path
     d="m376.550781 343.292969c22.253907-52.972657 28.109375-113.03125 15.859375-171.894531-3.753906-18.066407-9.097656-35.484376-15.964844-52.160157 10.28125-2.152343 20.367188-4.597656 30.234376-7.332031 10.964843-3.039062 25.171874-7.269531 38.828124-13.230469-3.054687-4.351562-6.25-8.597656-9.601562-12.722656-11.726562 4.824219-23.8125 8.402344-33.359375 11.054687-10.59375 2.9375-21.441406 5.527344-32.535156 7.753907-6.488281-13.582031-14.035157-26.617188-22.636719-39.042969-17.128906-24.777344-37.742188-46.144531-61.492188-63.800781h-.007812c-3.878906-.503907-7.777344-.90625-11.714844-1.214844-5.734375-.445313-11.539062-.6835938-17.386718-.6914062h-.011719c-.019531-.0117188-.03125-.0117188-.050781-.0117188h-1.421876c-.023437 0-.03125 0-.054687.0117188h-.007813c-5.847656.0078124-11.652343.2460932-17.386718.6914062-3.9375.308594-7.835938.710937-11.714844 1.214844h-.011719c-23.746093 17.65625-44.359375 39.023437-61.492187 63.800781-8.773438 12.683594-16.46875 26-23.035156 39.890625-22.046876-4.34375-44.230469-10.601563-65.511719-19.636719-3.34375 4.125-6.539063 8.363282-9.582031 12.714844 22.359374 9.847656 45.621093 16.675781 68.710937 21.417969-6.703125 16.410156-11.921875 33.546875-15.613281 51.292969-12.1875 58.542968-6.453125 118.261718 15.5 171.03125-23.058594 4.730468-46.273438 11.558593-68.597656 21.386718 3.042968 4.351563 6.238281 8.589844 9.578124 12.714844 21.296876-9.035156 43.488282-15.304688 65.535157-19.636719 7.105469 14.664063 15.519531 28.699219 25.214843 41.921875 17.777344 24.253906 38.152344 45.25 59.882813 61.851563 3.722656.464843 7.476563.84375 11.25 1.144531 5.691406.433594 11.457031.667969 17.261719.679688h.011718c.019532.011718.03125.011718.050782.011718h1.445312c.019532 0 .03125 0 .050782-.011718h.011718c5.804688-.007813 11.570313-.246094 17.261719-.679688 3.773437-.300781 7.527344-.679688 11.25-1.144531 21.726563-16.605469 42.105469-37.597657 59.882813-61.851563 9.507812-12.972656 17.789062-26.71875 24.8125-41.085937 11.09375 2.238281 21.953124 4.828125 32.554687 7.765625 9.546875 2.648437 21.632813 6.230468 33.359375 11.054687 3.351562-4.125 6.546875-8.371093 9.601562-12.726562-13.652343-5.957031-27.863281-10.1875-38.824218-13.230469-9.839844-2.734375-19.882813-5.167969-30.132813-7.300781zm.71875-168.738281c11.839844 56.890624 5.847657 114.898437-16.25 165.738281-14.449219-2.558594-29.277343-4.550781-44.433593-5.972657 8.238281-49.40625 10.382812-104.585937 5.78125-158.753906-1.378907-16.304687-3.347657-32.144531-5.867188-47.375 15.160156-1.421875 29.988281-3.414062 44.4375-5.972656 7.082031 16.675781 12.550781 34.15625 16.332031 52.335938zm-121.269531 286.875c-11.3125-16.777344-22.027344-40.652344-31.164062-69.527344-4.328126-13.664063-8.042969-28.265625-11.125-43.578125 12.351562-.667969 24.222656-.988281 35.390624-1.144531 16.738282-.226563 33.140626.175781 49.179688 1.21875-3.085938 15.28125-6.796875 29.863281-11.117188 43.503906-9.136718 28.875-19.851562 52.75-31.164062 69.527344zm-7.113281-129.71875c-11.964844.167968-24.71875.515624-38.023438 1.28125-8.199219-48.40625-10.351562-102.722657-5.824219-156.117188 1.390626-16.34375 3.371094-32.183594 5.90625-47.363281 13.273438.761719 26.007813 1.113281 37.941407 1.277343 3.144531.042969 6.277343.0625 9.390625.0625 14.511718 0 28.773437-.472656 42.765625-1.421874 2.539062 15.199218 4.527343 31.070312 5.921875 47.445312 4.523437 53.425781 2.371094 107.773438-5.847656 156.199219-17.027344-1.15625-34.453126-1.609375-52.230469-1.363281zm7.113281-330.679688c18.429688 26.933594 33.019531 66.359375 42.25 113.074219-16.015625 1.039062-32.421875 1.441406-49.148438 1.214843-11.160156-.15625-23.015624-.472656-35.363281-1.144531 9.222657-46.753906 23.824219-86.199219 42.261719-113.144531zm78.652344 73.484375c7.332031 10.601563 13.859375 21.667969 19.570312 33.164063-13.175781 2.226562-26.664062 3.96875-40.464844 5.21875-6.847656-35.15625-16.671874-66.554688-28.863281-92.171876 18.953125 15.335938 35.617188 33.332032 49.757813 53.789063zm-157.304688 0c14.140625-20.457031 30.804688-38.453125 49.757813-53.789063-12.21875 25.679688-22.058594 57.160157-28.90625 92.417969-13.261719-1.03125-26.945313-2.535156-40.785157-4.730469 5.796876-11.757812 12.449219-23.070312 19.933594-33.898437zm-42.617187 100.039063c3.722656-17.902344 9.082031-35.121094 16.011719-51.5625 15.191406 2.558593 30.195312 4.28125 44.714843 5.457031-2.496093 15.148437-4.453125 30.90625-5.824219 47.117187-4.589843 54.066406-2.464843 109.164063 5.742188 158.496094-14.519531 1.175781-29.53125 2.898438-44.722656 5.457031-21.832032-50.65625-27.699219-108.363281-15.921875-164.964843zm44.566406 215.113281c-8.257813-11.273438-15.550781-23.183594-21.828125-35.578125 13.804688-2.195313 27.449219-3.703125 40.679688-4.734375 3.269531 16.613281 7.261718 32.445312 11.941406 47.21875 4.144531 13.078125 9.859375 29.09375 17.128906 44.703125-17.253906-14.457032-33.460938-31.882813-47.921875-51.609375zm153.40625 0c-14.460937 19.726562-30.667969 37.152343-47.921875 51.609375 7.269531-15.613282 12.984375-31.625 17.128906-44.703125 4.660156-14.703125 8.628906-30.449219 11.898438-46.96875 13.757812 1.257812 27.214844 2.988281 40.351562 5.207031-6.195312 12.136719-13.351562 23.800781-21.457031 34.855469zm0 0"
     fill="#00a8b0"
     id="path6"
     style="fill:#ffffff;fill-opacity:1" />
  <path
     d="m500.578125 289.675781h-489.15625c-6.308594 0-11.421875-5.113281-11.421875-11.421875v-69.613281c0-6.304687 5.113281-11.417969 11.421875-11.417969h489.15625c6.308594 0 11.421875 5.113282 11.421875 11.417969v69.613281c0 6.308594-5.113281 11.421875-11.421875 11.421875zm0 0"
     fill="#e7e7e7"
     id="path8" />
  <g
     id="g32"
     transform="matrix(1.0925167,0,0,1.0925167,-1.6600415,-22.838615)"
     style="fill:#5a5a5a">
    <g
       id="g837"
       transform="matrix(2.1907513,0,0,2.1907513,-448.96568,-293.94811)">
      <path
         id="path26"
         d="m 273.22266,259.19141 c -0.39063,0.9414 -1.60938,1.27343 -2.82813,1.27343 -1.38672,0 -2.60547,-0.4414 -2.9375,-1.27343 l -4.26953,-12.08204 -4.21094,12.02735 c -0.33203,0.88672 -1.66015,1.32812 -3.04687,1.32812 -1.16407,0 -2.38282,-0.33203 -2.77344,-1.32812 L 244.625,237.24219 c -0.22266,-0.44141 -0.27734,-0.77344 -0.27734,-1.05078 0,-1.71875 2.76953,-2.9375 4.65625,-2.9375 0.9414,0 1.76953,0.38671 2.05078,1.16406 l 5.53906,15.73828 4.15625,-13.6875 c 0.39062,-1.27734 1.33203,-1.44141 2.4375,-1.44141 1.05469,0 2.05078,0.16407 2.44141,1.44141 l 4.10156,13.74219 5.59375,-15.79297 c 0.27734,-0.72266 1.05469,-1.16406 2.05469,-1.16406 1.76953,0 4.59765,1.21875 4.59765,2.99218 0,0.33203 -0.0547,0.71875 -0.21875,0.9961 z m 0,0"
         inkscape:connector-curvature="0" />
      <path
         id="path28"
         d="m 314.95703,259.19141 c -0.39062,0.9414 -1.60937,1.27343 -2.82812,1.27343 -1.38672,0 -2.60157,-0.4414 -2.9375,-1.27343 l -4.26563,-12.08204 -4.21484,12.02735 c -0.33203,0.88672 -1.66016,1.32812 -3.04688,1.32812 -1.16406,0 -2.38281,-0.33203 -2.76953,-1.32812 l -8.53516,-21.89453 c -0.22265,-0.44141 -0.27734,-0.77344 -0.27734,-1.05078 0,-1.71875 2.76953,-2.9375 4.65234,-2.9375 0.94532,0 1.77344,0.38671 2.05079,1.16406 l 5.54296,15.73828 4.15625,-13.6875 c 0.39063,-1.27734 1.33204,-1.44141 2.4375,-1.44141 1.05469,0 2.05079,0.16407 2.4375,1.44141 l 4.10547,13.74219 5.59766,-15.79297 c 0.27344,-0.72266 1.05078,-1.16406 2.04687,-1.16406 1.77344,0 4.60157,1.21875 4.60157,2.99218 0,0.33203 -0.0547,0.71875 -0.22266,0.9961 z m 0,0"
         inkscape:connector-curvature="0" />
      <path
         id="path30"
         d="m 356.69141,259.19141 c -0.38672,0.9414 -1.60547,1.27343 -2.82422,1.27343 -1.38672,0 -2.60547,-0.4414 -2.9375,-1.27343 l -4.26953,-12.08204 -4.21094,12.02735 c -0.33203,0.88672 -1.66406,1.32812 -3.05078,1.32812 -1.16407,0 -2.38282,-0.33203 -2.76953,-1.32812 l -8.53516,-21.89453 c -0.22266,-0.44141 -0.27734,-0.77344 -0.27734,-1.05078 0,-1.71875 2.77343,-2.9375 4.65625,-2.9375 0.9414,0 1.77343,0.38671 2.05078,1.16406 l 5.54297,15.73828 4.15625,-13.6875 c 0.38671,-1.27734 1.32812,-1.44141 2.4375,-1.44141 1.05468,0 2.05078,0.16407 2.4375,1.44141 l 4.10156,13.74219 5.59765,-15.79297 c 0.27735,-0.72266 1.05469,-1.16406 2.05079,-1.16406 1.77343,0 4.60156,1.21875 4.60156,2.99218 0,0.33203 -0.0586,0.71875 -0.22266,0.9961 z m 0,0"
         inkscape:connector-curvature="0" />
    </g>
  </g>
  <path
     d="m500.578125 290.03125h-89.894531v-93.84375h89.894531c6.308594 0 11.421875 5.113281 11.421875 11.421875v71c0 6.308594-5.113281 11.421875-11.421875 11.421875zm0 0"
     fill="#c9f0ff"
     id="path34" />
  <path
     d="m 452.99028,211.2056 6.86629,13.91218 c 0.84017,1.69194 2.4568,2.86819 4.32257,3.14054 l 15.36076,2.2308 c 4.70499,0.68374 6.58815,6.47227 3.18109,9.79242 l -11.11353,10.83539 c -1.35587,1.31532 -1.97006,3.21586 -1.65138,5.08163 l 2.61904,15.29124 c 0.8054,4.69341 -4.11397,8.26851 -8.32646,6.05508 l -13.73834,-7.22554 c -1.67457,-0.87494 -3.67362,-0.87494 -5.34238,0 l -13.73836,7.22554 c -4.20667,2.21343 -9.13186,-1.36167 -8.32645,-6.05508 l 2.62483,-15.29124 c 0.3187,-1.86577 -0.3013,-3.76631 -1.65138,-5.08163 l -11.11351,-10.83539 c -3.40708,-3.32015 -1.52971,-9.10868 3.18108,-9.79242 l 15.35497,-2.2308 c 1.87157,-0.27235 3.48818,-1.4486 4.32257,-3.14054 l 6.86628,-13.91218 c 2.10913,-4.27042 8.19319,-4.27042 10.30231,0 z m 0,0"
     id="path36"
     inkscape:connector-curvature="0"
     style="fill:#ffd86e;stroke-width:1.48334825" />
  <path
     d="m500.578125 289.675781h-13.933594v-92.453125h13.933594c6.308594 0 11.421875 5.113282 11.421875 11.417969v69.613281c0 6.308594-5.113281 11.421875-11.421875 11.421875zm0 0"
     id="path38"
     fill="#9ae7fd" />
</svg>
