<?xml version="1.0" encoding="UTF-8" standalone="no"?>
<svg
   xmlns:dc="http://purl.org/dc/elements/1.1/"
   xmlns:cc="http://creativecommons.org/ns#"
   xmlns:rdf="http://www.w3.org/1999/02/22-rdf-syntax-ns#"
   xmlns:svg="http://www.w3.org/2000/svg"
   xmlns="http://www.w3.org/2000/svg"
   xmlns:sodipodi="http://sodipodi.sourceforge.net/DTD/sodipodi-0.dtd"
   xmlns:inkscape="http://www.inkscape.org/namespaces/inkscape"
   width="64"
   height="64"
   version="1"
   id="svg12"
   sodipodi:docname="Papirus-Team-Papirus-Apps-Github-bartzaalberg-php-tester.svg"
   inkscape:version="0.92.4 (f8dce91, 2019-08-02)">
  <metadata
     id="metadata18">
    <rdf:RDF>
      <cc:Work
         rdf:about="">
        <dc:format>image/svg+xml</dc:format>
        <dc:type
           rdf:resource="http://purl.org/dc/dcmitype/StillImage" />
      </cc:Work>
    </rdf:RDF>
  </metadata>
  <defs
     id="defs16" />
  <sodipodi:namedview
     pagecolor="#ffffff"
     bordercolor="#666666"
     borderopacity="1"
     objecttolerance="10"
     gridtolerance="10"
     guidetolerance="10"
     inkscape:pageopacity="0"
     inkscape:pageshadow="2"
     inkscape:window-width="1920"
     inkscape:window-height="1048"
     id="namedview14"
     showgrid="false"
     inkscape:zoom="3.6875"
     inkscape:cx="32"
     inkscape:cy="32"
     inkscape:window-x="1920"
     inkscape:window-y="0"
     inkscape:window-maximized="1"
     inkscape:current-layer="svg12" />
  <rect
     width="56"
     height="56"
     x="-61"
     y="-60"
     rx="2.8"
     ry="2.8"
     transform="matrix(0,-1,-1,0,0,0)"
     style="opacity:0.2"
     id="rect2" />
  <rect
     style="fill:#465489;stroke-width:1.13559318"
     width="63.59322"
     height="63.59322"
     x="-63.796612"
     y="-63.796612"
     rx="3.179661"
     ry="3.179661"
     transform="matrix(0,-1,-1,0,0,0)"
     id="rect4" />
  <path
     d="M 29.636719,23 C 28.802463,27.43235 27.834256,32.546488 27,36.974609 l 2.789062,0 C 30.26968,34.432174 30.743593,31.512839 31.21875,29 c 0.948949,0 1.84903,-0.03311 2.746094,0.0078 0.882045,0.03946 1.217187,0.482027 1.068359,1.376954 -0.204809,1.220481 -0.444631,2.837024 -0.669922,4.054687 -0.155655,0.839962 -0.314667,1.681124 -0.478515,2.560547 0.91345,-2e-6 1.788256,0.0024 2.662109,-0.01172 0.071,-0.0014 0.18459,-0.118041 0.205078,-0.201172 0.07783,-0.312871 0.124882,-0.636571 0.183594,-0.955078 0.335887,-1.809583 0.695327,-3.817048 1.003906,-5.630859 0.271711,-1.601001 -0.367813,-2.61857 -1.884765,-2.951172 -0.718199,-0.157846 -1.469718,-0.177105 -2.207032,-0.210938 -0.72912,-0.03382 -1.460956,-0.0059 -2.21875,-0.0059 C 31.851465,25.842318 32.204,24.179611 32.423828,23 l -2.787109,0 z m -12.488281,4.003906 c -0.08921,0 -0.1791,0.01295 -0.275391,0.02148 C 16.007835,31.455177 14.865212,36.568804 14,41 l 2.914062,0 c 0.219491,-1.113083 0.722212,-2.592287 0.921876,-3.675781 0.03823,-0.208527 0.121528,-0.259222 0.318359,-0.257813 0.957256,0.0042 1.916669,0.02469 2.871094,-0.01758 0.601825,-0.02677 1.208135,-0.105748 1.792968,-0.248047 2.190643,-0.53259 4.408504,-3.158964 4.16211,-6.453125 -0.12603,-1.689349 -1.086473,-2.733755 -2.746094,-3.136718 -0.505533,-0.12399 -1.034993,-0.192174 -1.554687,-0.199219 -1.843711,-0.02254 -3.687543,-0.0078 -5.53125,-0.0078 z m 23,0 c -0.08921,0 -0.1791,0.01295 -0.275391,0.02148 C 39.007835,31.455177 37.865212,36.568804 37,41 l 2.914062,0 c 0.219491,-1.113083 0.722211,-2.592287 0.921876,-3.675781 0.03823,-0.208527 0.121528,-0.259222 0.318359,-0.257813 0.957256,0.0042 1.916669,0.02469 2.871094,-0.01758 0.601825,-0.02677 1.208135,-0.105748 1.792968,-0.248047 2.190643,-0.53259 4.408504,-3.158964 4.16211,-6.453125 -0.12603,-1.689349 -1.086473,-2.733755 -2.746094,-3.136718 -0.505533,-0.12399 -1.034993,-0.192174 -1.554687,-0.199219 -1.843711,-0.02254 -3.687542,-0.0078 -5.53125,-0.0078 z m -20.75,2.033203 c 1.101693,0.06481 2.187614,0.06582 3.253906,0.210938 0.933183,0.128216 1.330665,0.665144 1.291015,1.603515 -0.02549,0.572041 -0.13047,1.450503 -0.289062,2 -0.352599,1.222981 -1.222811,1.903035 -2.474609,2.03125 -0.934599,0.09581 -1.882391,0.08359 -2.890626,0.123047 0.375257,-1.919011 0.735536,-4.055376 1.109376,-5.96875 z m 23,0 c 1.101694,0.06481 2.187614,0.06582 3.253906,0.210938 0.933183,0.128216 1.330665,0.665144 1.291015,1.603515 -0.02549,0.572041 -0.13047,1.450503 -0.289062,2 -0.352599,1.222981 -1.222811,1.903035 -2.474609,2.03125 -0.934599,0.09581 -1.88239,0.08359 -2.890626,0.123047 0.375257,-1.919011 0.735536,-4.055376 1.109376,-5.96875 z"
     style="opacity:0.2;isolation:isolate;fill-rule:evenodd"
     id="path6" />
  <path
     style="isolation:isolate;fill:#ffffff;fill-rule:evenodd;stroke-width:1.13559318"
     d="m 29.316274,20.644068 c -0.947375,5.033346 -2.046865,10.840927 -2.99424,15.869471 h 3.16724 c 0.545786,-2.887172 1.083959,-6.202349 1.623544,-9.055912 1.07762,0 2.099746,-0.0376 3.118446,0.0089 1.001644,0.04481 1.382229,0.547387 1.213221,1.56366 -0.23258,1.38597 -0.50492,3.221705 -0.760759,4.604475 -0.176761,0.953855 -0.357334,1.909073 -0.543399,2.90774 1.037308,-2e-6 2.030732,0.0027 3.023073,-0.01331 0.08063,-0.0016 0.20962,-0.134047 0.232886,-0.22845 0.08838,-0.355294 0.141815,-0.722885 0.208488,-1.08458 0.381431,-2.05495 0.789608,-4.334614 1.140029,-6.394365 0.308553,-1.818086 -0.417686,-2.97363 -2.140327,-3.351331 -0.815582,-0.179249 -1.669002,-0.201119 -2.50629,-0.23954 -0.827984,-0.0384 -1.659052,-0.0067 -2.519598,-0.0067 0.252737,-1.352361 0.653073,-3.24052 0.902708,-4.580078 z m -14.181607,4.546808 c -0.101308,0 -0.203385,0.01471 -0.312732,0.0244 -0.982529,5.030434 -2.280084,10.837435 -3.262613,15.869471 h 3.309189 c 0.249253,-1.26401 0.820139,-2.943784 1.046876,-4.174192 0.04341,-0.236802 0.138007,-0.294371 0.361527,-0.292771 1.087053,0.0048 2.176556,0.02804 3.260394,-0.01996 0.683429,-0.0304 1.37195,-0.120087 2.036083,-0.281681 2.487679,-0.604805 5.006267,-3.587298 4.726464,-7.328125 -0.143119,-1.918413 -1.233792,-3.104434 -3.118446,-3.562036 -0.57408,-0.140802 -1.175331,-0.218231 -1.765492,-0.226231 -2.093706,-0.0256 -4.187549,-0.0089 -6.28125,-0.0089 z m 26.118644,0 c -0.101307,0 -0.203385,0.01471 -0.312732,0.0244 -0.982529,5.030434 -2.280084,10.837435 -3.262613,15.869471 h 3.309189 c 0.249253,-1.26401 0.820138,-2.943784 1.046876,-4.174192 0.04341,-0.236802 0.138007,-0.294371 0.361527,-0.292771 1.087053,0.0048 2.176556,0.02804 3.260394,-0.01996 0.683429,-0.0304 1.37195,-0.120087 2.036083,-0.281681 2.487679,-0.604805 5.006267,-3.587298 4.726464,-7.328125 -0.143119,-1.918413 -1.233792,-3.104434 -3.118446,-3.562036 -0.57408,-0.140802 -1.175331,-0.218231 -1.765492,-0.226231 -2.093706,-0.0256 -4.187548,-0.0089 -6.28125,-0.0089 z m -23.563559,2.308892 c 1.251075,0.0736 2.484239,0.07474 3.695113,0.23954 1.059717,0.145601 1.511094,0.755333 1.466068,1.82094 -0.02895,0.649606 -0.148161,1.647182 -0.328257,2.271187 -0.400409,1.388809 -1.388616,2.161073 -2.810149,2.306674 -1.061324,0.108802 -2.13763,0.09493 -3.282575,0.139731 0.426139,-2.179216 0.835269,-4.605258 1.2598,-6.778072 z m 26.118644,0 c 1.251076,0.0736 2.484239,0.07474 3.695113,0.23954 1.059717,0.145601 1.511094,0.755333 1.466068,1.82094 -0.02895,0.649606 -0.148161,1.647182 -0.328257,2.271187 -0.400409,1.388809 -1.388616,2.161073 -2.810149,2.306674 -1.061324,0.108802 -2.137629,0.09493 -3.282575,0.139731 0.426139,-2.179216 0.83527,-4.605258 1.2598,-6.778072 z"
     id="path8"
     inkscape:connector-curvature="0" />
  <path
     style="opacity:0.1;fill:#ffffff"
     d="M 6.8007812 4 C 5.2495812 4 4 5.2495812 4 6.8007812 L 4 7.8007812 C 4 6.2495813 5.2495812 5 6.8007812 5 L 57.199219 5 C 58.750419 5 60 6.2495812 60 7.8007812 L 60 6.8007812 C 60 5.2495813 58.750419 4 57.199219 4 L 6.8007812 4 z"
     id="path10" />
</svg>
