<?xml version="1.0" encoding="UTF-8" standalone="no"?>
<!-- Generator: Adobe Illustrator 18.0.0, SVG Export Plug-In . SVG Version: 6.00 Build 0)  -->

<svg
   xmlns:dc="http://purl.org/dc/elements/1.1/"
   xmlns:cc="http://creativecommons.org/ns#"
   xmlns:rdf="http://www.w3.org/1999/02/22-rdf-syntax-ns#"
   xmlns:svg="http://www.w3.org/2000/svg"
   xmlns="http://www.w3.org/2000/svg"
   xmlns:sodipodi="http://sodipodi.sourceforge.net/DTD/sodipodi-0.dtd"
   xmlns:inkscape="http://www.inkscape.org/namespaces/inkscape"
   version="1.1"
   id="Capa_1"
   x="0px"
   y="0px"
   viewBox="0 0 112.197 112.197"
   style="enable-background:new 0 0 112.197 112.197;"
   xml:space="preserve"
   sodipodi:docname="twitter1.svg"
   inkscape:version="0.92.4 5da689c313, 2019-01-14"><metadata
   id="metadata45"><rdf:RDF><cc:Work
       rdf:about=""><dc:format>image/svg+xml</dc:format><dc:type
         rdf:resource="http://purl.org/dc/dcmitype/StillImage" /></cc:Work></rdf:RDF></metadata><defs
   id="defs43" /><sodipodi:namedview
   pagecolor="#ffffff"
   bordercolor="#666666"
   borderopacity="1"
   objecttolerance="10"
   gridtolerance="10"
   guidetolerance="10"
   inkscape:pageopacity="0"
   inkscape:pageshadow="2"
   inkscape:window-width="1920"
   inkscape:window-height="1048"
   id="namedview41"
   showgrid="false"
   inkscape:zoom="2.1034431"
   inkscape:cx="56.098499"
   inkscape:cy="56.098499"
   inkscape:window-x="1920"
   inkscape:window-y="0"
   inkscape:window-maximized="1"
   inkscape:current-layer="g8" />
<g
   id="g8">
	
	
<path
   style="fill:#f1f2f2;stroke-width:1.64666164"
   d="m 109.90974,22.721492 c -3.95857,1.755341 -8.21683,2.942584 -12.682586,3.472809 4.559606,-2.731812 8.058766,-7.054298 9.710366,-12.213289 -4.2665,2.530919 -8.994067,4.366946 -14.021327,5.35659 -4.027734,-4.289553 -9.76635,-6.970318 -16.120817,-6.970318 -12.191883,0 -22.080086,9.888202 -22.080086,22.080085 0,1.730642 0.195953,3.415176 0.574686,5.032198 C 36.939579,38.559083 20.668915,29.769203 9.7778952,16.406545 c -1.9002475,3.26039 -2.9903375,7.055944 -2.9903375,11.101792 0,7.658623 3.9009413,14.419816 9.8223363,18.37839 -3.617715,-0.113619 -7.0246582,-1.106557 -10.0001757,-2.764744 -0.00164,0.09386 -0.00164,0.187719 -0.00164,0.279932 0,10.698361 7.6141637,19.62162 17.7131387,21.64866 -1.850848,0.507172 -3.805435,0.775578 -5.816009,0.775578 -1.426009,0 -2.807558,-0.136673 -4.154527,-0.393552 2.809205,8.77012 10.961826,15.154226 20.626083,15.333712 -7.558177,5.923042 -17.077527,9.451838 -27.4251486,9.451838 -1.7783945,0 -3.5403225,-0.10374 -5.2643772,-0.309572 9.7663458,6.267194 21.3753098,9.921136 33.8438328,9.921136 40.613262,0 62.82343,-33.64459 62.82343,-62.82508 0,-0.95671 -0.02137,-1.910128 -0.0642,-2.855312 4.317549,-3.11219 8.060419,-6.999958 11.019459,-11.427831 z"
   id="path854"
   inkscape:connector-curvature="0" /></g>
<g
   id="g10">
</g>
<g
   id="g12">
</g>
<g
   id="g14">
</g>
<g
   id="g16">
</g>
<g
   id="g18">
</g>
<g
   id="g20">
</g>
<g
   id="g22">
</g>
<g
   id="g24">
</g>
<g
   id="g26">
</g>
<g
   id="g28">
</g>
<g
   id="g30">
</g>
<g
   id="g32">
</g>
<g
   id="g34">
</g>
<g
   id="g36">
</g>
<g
   id="g38">
</g>
</svg>